<svg width="125" height="35" viewBox="0 0 125 35" fill="none" xmlns="http://www.w3.org/2000/svg">
<path d="M28.8418 15.1331V32.3182C26.5666 33.0927 22.2582 34.1577 17.9499 34.1577C11.9956 34.1577 7.68725 32.657 4.68591 29.8009C1.73299 26.9448 0.0870967 22.6849 0.0870967 17.8924C0.135505 7.04889 8.02611 0.852586 18.7244 0.852586C22.936 0.852586 26.1793 1.67553 27.7768 2.40166L26.2277 8.35592C24.4366 7.53297 22.2582 6.95207 18.676 6.95207C12.5281 6.95207 7.83247 10.3891 7.83247 17.5051C7.83247 24.2824 12.0924 28.2034 18.1435 28.2034C19.7894 28.2034 21.1448 28.0098 21.7257 27.7678V20.8937H16.6912V15.1331H28.8418ZM34.585 33.8188V1.62713C36.8602 1.23986 40.0552 0.949405 44.5572 0.949405C49.1076 0.949405 52.351 1.82076 54.5294 3.56347C56.6594 5.20936 58.0148 7.92024 58.0148 11.1152C58.0148 14.3102 56.9982 17.0695 55.0135 18.8606C52.4962 21.1842 48.7688 22.2976 44.412 22.2976C43.4438 22.2976 42.5725 22.2492 41.8947 22.104V33.8188H34.585ZM41.8947 6.80685V16.4402C42.524 16.5854 43.2502 16.6338 44.3636 16.6338C48.2847 16.6338 50.7051 14.649 50.7051 11.3573C50.7051 8.35592 48.6235 6.5648 44.8961 6.5648C43.4438 6.5648 42.4272 6.66162 41.8947 6.80685ZM69.0546 33.8188V7.38775H60.2442V1.19145H85.3199V7.38775H76.4127V33.8188H69.0546ZM84.6074 18.667H97.2904V23.5562H84.6074V18.667ZM120.781 33.8188H113.811V26.3155H99.869V21.5231L111.729 2.35325H120.781V20.7969H124.509V26.3155H120.781V33.8188ZM106.695 20.7969H113.811V13.8261C113.811 11.9382 113.907 10.0018 114.004 7.96865H113.859C112.842 10.0018 111.971 11.8413 110.906 13.8261L106.743 20.7001L106.695 20.7969Z" fill="white"/>
</svg>
