<svg width="30" height="30" viewBox="0 0 30 30" fill="none" xmlns="http://www.w3.org/2000/svg">
<g clip-path="url(#clip0_1_906)">
<rect width="29.9149" height="29.9149" transform="translate(0.0421753 0.000488281)" fill="white"/>
<path d="M29.6657 15.3027C29.6657 14.286 29.5833 13.2637 29.4074 12.2634H15.2991V18.0233H23.3782C23.043 19.8809 21.9658 21.5242 20.3884 22.5685V26.3058H25.2084C28.0389 23.7007 29.6657 19.8534 29.6657 15.3027Z" fill="#4285F4"/>
<path d="M15.2987 29.9167C19.3328 29.9167 22.7348 28.5922 25.2135 26.3058L20.3935 22.5685C19.0525 23.4809 17.3212 23.9975 15.3042 23.9975C11.402 23.9975 8.09342 21.3649 6.90628 17.8254H1.93237V21.6782C4.47154 26.729 9.6433 29.9167 15.2987 29.9167Z" fill="#34A853"/>
<path d="M6.90112 17.8252C6.27457 15.9675 6.27457 13.956 6.90112 12.0983V8.24561H1.93271C-0.188753 12.472 -0.188753 17.4514 1.93271 21.6779L6.90112 17.8252Z" fill="#FBBC04"/>
<path d="M15.2987 5.92071C17.4312 5.88774 19.4922 6.69016 21.0366 8.16309L25.307 3.89268C22.6029 1.35352 19.014 -0.042472 15.2987 0.00149625C9.6433 0.00149625 4.47154 3.18919 1.93237 8.24553L6.90078 12.0982C8.08243 8.55331 11.3965 5.92071 15.2987 5.92071Z" fill="#EA4335"/>
</g>
<defs>
<clipPath id="clip0_1_906">
<rect width="29.9149" height="29.9149" fill="white" transform="translate(0.0421753 0.000488281)"/>
</clipPath>
</defs>
</svg>
