<svg width="67" height="19" viewBox="0 0 67 19" fill="none" xmlns="http://www.w3.org/2000/svg">
<path d="M15.3326 8.01298V17.1695C14.1204 17.5822 11.8248 18.1497 9.52919 18.1497C6.35663 18.1497 4.06105 17.3501 2.46188 15.8283C0.888496 14.3065 0.0115309 12.0367 0.0115309 9.48318C0.037324 3.70553 4.2416 0.404012 9.94188 0.404012C12.1859 0.404012 13.914 0.842495 14.7652 1.22939L13.9398 4.40194C12.9855 3.96346 11.8248 3.65394 9.91608 3.65394C6.64036 3.65394 4.13843 5.48525 4.13843 9.27684C4.13843 12.8879 6.40822 14.9771 9.63236 14.9771C10.5093 14.9771 11.2315 14.8739 11.541 14.745V11.0824H8.85857V8.01298H15.3326ZM18.3927 17.9691V0.816703C19.605 0.610357 21.3074 0.455599 23.7061 0.455599C26.1307 0.455599 27.8588 0.919875 29.0195 1.84843C30.1544 2.72539 30.8766 4.16981 30.8766 5.87215C30.8766 7.5745 30.335 9.0447 29.2774 9.99905C27.9362 11.2371 25.9501 11.8304 23.6287 11.8304C23.1129 11.8304 22.6486 11.8046 22.2875 11.7272V17.9691H18.3927ZM22.2875 3.57656V8.70939C22.6228 8.78677 23.0097 8.81256 23.603 8.81256C25.6922 8.81256 26.9818 7.75505 26.9818 6.00112C26.9818 4.40194 25.8727 3.4476 23.8867 3.4476C23.1129 3.4476 22.5712 3.49918 22.2875 3.57656ZM36.7588 17.9691V3.88608H32.0645V0.584565H45.4253V3.88608H40.6794V17.9691H36.7588ZM45.0457 9.89587H51.8035V12.501H45.0457V9.89587ZM64.32 17.9691H60.6058V13.9712H53.1774V11.4177L59.4967 1.2036H64.32V11.0308H66.3061V13.9712H64.32V17.9691ZM56.8142 11.0308H60.6058V7.31656C60.6058 6.31063 60.6574 5.27891 60.7089 4.1956H60.6316C60.0899 5.27891 59.6256 6.25905 59.0582 7.31656L56.84 10.9792L56.8142 11.0308Z" fill="#2D344D"/>
</svg>
