<svg width="30" height="30" viewBox="0 0 30 30" fill="none" xmlns="http://www.w3.org/2000/svg">
<g clip-path="url(#clip0_1_904)">
<rect width="29.9149" height="29.9149" rx="14.9574" fill="white"/>
<path fill-rule="evenodd" clip-rule="evenodd" d="M2.10472 2.10472C-2.54724e-07 4.20945 0 7.58556 0 14.3591L0 15.5557C0 22.3293 -2.54724e-07 25.7054 2.10472 27.8101C4.20945 29.9149 7.58556 29.9149 14.3591 29.9149H15.5557C22.3293 29.9149 25.7054 29.9149 27.8101 27.8101C29.9149 25.7054 29.9149 22.3293 29.9149 15.5557V14.3591C29.9149 7.58556 29.9149 4.20945 27.8101 2.10472C25.7054 -2.54724e-07 22.3293 0 15.5557 0L14.3591 0C7.58556 0 4.20945 -2.54724e-07 2.10472 2.10472ZM4.968 9.3484C5.13895 17.1263 9.23087 21.8165 15.9724 21.8165H16.3677V17.3613C18.825 17.607 20.6626 19.4447 21.4105 21.8165H24.9575C24.6067 20.4818 23.9794 19.2358 23.1162 18.1591C22.253 17.0824 21.1732 16.1991 19.9468 15.5664C21.0441 14.8758 21.9885 13.9679 22.7216 12.8985C23.4547 11.8291 23.9612 10.6209 24.2097 9.3484H20.9831C20.2994 11.8271 18.2908 14.0707 16.3677 14.2843V9.3484H13.0878V17.981C11.1006 17.4895 8.49369 15.0643 8.38685 9.3484H4.968Z" fill="#1976D2"/>
</g>
<defs>
<clipPath id="clip0_1_904">
<rect width="29.9149" height="29.9149" rx="14.9574" fill="white"/>
</clipPath>
</defs>
</svg>
