<svg width="30" height="30" viewBox="0 0 30 30" fill="none" xmlns="http://www.w3.org/2000/svg">
<g clip-path="url(#clip0_1_905)">
<rect width="29.9149" height="29.9149" transform="translate(0.085144 0.000488281)" fill="white"/>
<path d="M15.0426 29.9154C23.3037 29.9154 30 23.219 30 14.9579C30 6.69682 23.3037 0.000488281 15.0426 0.000488281C6.78147 0.000488281 0.085144 6.69682 0.085144 14.9579C0.085144 23.219 6.78147 29.9154 15.0426 29.9154Z" fill="#FC3F1D"/>
<path d="M19.8174 23.3339H16.849V8.65027H15.527C13.1096 8.65027 11.8382 9.87217 11.8382 11.6797C11.8382 13.7358 12.723 14.6827 14.5306 15.9046L16.0263 16.9022L11.7255 23.3339H8.52344L12.3871 17.5925C10.1642 16.0116 8.92269 14.4538 8.92269 11.8546C8.92269 8.57548 11.1905 6.35718 15.5155 6.35718H19.8163L19.8174 23.3339Z" fill="white"/>
</g>
<defs>
<clipPath id="clip0_1_905">
<rect width="29.9149" height="29.9149" fill="white" transform="translate(0.085144 0.000488281)"/>
</clipPath>
</defs>
</svg>
