<svg width="35" height="35" viewBox="0 0 35 35" fill="none" xmlns="http://www.w3.org/2000/svg">
<g clip-path="url(#clip0_1_725)">
<g clip-path="url(#clip1_1_725)">
<g clip-path="url(#clip2_1_725)">
<path d="M11.4902 17.6245C11.9145 17.5364 12.3577 17.3436 12.7759 17.0411C13.9782 16.1696 14.5118 14.7387 13.9665 13.8434C13.3736 12.8696 11.7518 12.9351 10.5056 14.0434C9.31383 15.0744 9.05957 16.1518 9.05957 17.2841C9.05957 18.0841 9.31494 19.5126 10.8749 20.7532C11.6115 20.183 12.4896 19.7138 13.4864 19.3746L13.4996 19.3698C12.7337 19.05 11.7354 18.4188 11.4902 17.6245ZM11.2979 14.8708C11.2979 14.5362 11.5639 14.2673 11.892 14.2673C12.2197 14.2673 12.486 14.5375 12.486 14.8721C12.486 15.2066 12.2197 15.4756 11.892 15.4756C11.564 15.4756 11.2979 15.2053 11.2979 14.8708Z" fill="white"/>
</g>
</g>
<g clip-path="url(#clip3_1_725)">
<g clip-path="url(#clip4_1_725)">
<path d="M25.4204 17.2852C25.4168 16.1518 25.1637 15.0744 23.9709 14.0434C22.7256 12.9362 21.1027 12.8683 20.5098 13.8434C19.9656 14.7387 20.4979 16.1697 21.7002 17.0411C22.1185 17.3436 22.5618 17.5364 22.9858 17.6245C22.8385 18.1019 22.3906 18.5876 21.7075 18.9971C20.7681 19.5589 20.2607 19.6284 14.2507 21.6282C12.0266 22.3854 10.7031 23.8901 10.7031 25.6534C10.7031 26.9094 11.3434 27.8784 12.2333 28.5881C12.793 28.0106 13.4916 27.5095 14.3079 27.1082C13.3681 26.632 13.0781 26.2712 13.0781 25.6534C13.0781 24.6335 15.1125 24.0505 16.0509 23.7402V26.3213L18.4272 25.2593V23.7414C19.3671 24.0533 21.3963 24.6356 21.3963 25.6534C21.3963 27.3465 16.5578 28.345 14.4992 29.7678C13.5 30.4619 12.9628 31.3441 12.9628 32.381C12.9628 32.9763 13.0318 33.7144 14.0749 34.4478C14.3707 34.6845 14.7816 34.3387 14.5895 34.006C13.9003 32.6238 14.6322 31.9334 16.0532 31.3356V33.3333C16.0532 33.9905 16.5855 34.5239 17.2413 34.5239C17.8972 34.5239 18.4295 33.9905 18.4295 33.3333V31.3368C19.7945 31.9107 20.6537 32.7214 19.8897 34.006C19.7003 34.3323 20.1035 34.6874 20.4029 34.4478C21.4128 33.681 21.4924 33.0238 21.4924 32.3965C21.4924 31.431 20.965 30.4941 19.9645 29.7761C21.9868 29.044 23.776 27.8118 23.776 25.6557C23.776 24.1664 22.8316 22.8616 21.199 22.0353C21.9617 21.7603 22.3454 21.5758 22.8551 21.2711C25.0877 19.9341 25.4204 18.1996 25.4204 17.2852ZM22.5856 15.4756C22.2575 15.4756 21.9915 15.2053 21.9915 14.8708C21.9915 14.5362 22.2575 14.266 22.5856 14.266C22.9134 14.266 23.1796 14.5362 23.1796 14.8708C23.1796 15.2053 22.9134 15.4756 22.5856 15.4756Z" fill="white"/>
</g>
</g>
<g clip-path="url(#clip5_1_725)">
<g clip-path="url(#clip6_1_725)">
<path d="M33.8614 2.38335H25.7246C24.1284 2.38335 22.9305 3.09038 21.9001 4.12301C20.7806 5.24478 20.1985 7.73841 18.4159 7.73841V4.43187C19.1233 4.01943 19.604 3.26025 19.604 2.38105C19.604 1.06604 18.5402 0 17.2278 0C15.9154 0 14.8516 1.06604 14.8516 2.38105C14.8516 3.26018 15.3323 4.01936 16.0397 4.43187V18.6203C16.773 18.3859 17.5778 18.1277 18.4159 17.8579V11.8945C18.9314 11.6354 19.3473 11.2164 19.6024 10.6978C20.0156 11.4056 20.8013 11.9075 21.677 11.9075C22.5652 11.9075 23.3304 11.4134 23.7381 10.6902C25.13 12.085 27.7171 12.1119 29.109 10.7172L27.0899 8.69403L28.0161 9.07849C29.8348 9.83336 31.9198 8.96792 32.6733 7.14553L29.805 5.955C32.5837 5.95493 33.8614 4.20776 33.8614 2.38335Z" fill="white"/>
</g>
</g>
<g clip-path="url(#clip7_1_725)">
<g clip-path="url(#clip8_1_725)">
<path d="M12.5561 4.12308C11.5256 3.09045 10.3278 2.38342 8.73156 2.38342H0.594727C0.594727 4.20775 1.87247 5.955 4.65119 5.955L1.78285 7.14552C2.53626 8.96791 4.62133 9.83328 6.44005 9.07848L7.36626 8.69402L5.3472 10.7172C6.73908 12.1119 9.32621 12.0851 10.7181 10.6902C11.1258 11.4135 11.891 11.9076 12.7792 11.9076C12.7879 11.9076 12.7967 11.9075 12.8055 11.9075C13.9664 11.8942 14.8538 10.8434 14.8538 9.68015V7.28496C13.9173 6.51506 13.381 4.9496 12.5561 4.12308Z" fill="white"/>
</g>
</g>
</g>
<defs>
<clipPath id="clip0_1_725">
<rect width="34.4566" height="34.5263" fill="white"/>
</clipPath>
<clipPath id="clip1_1_725">
<rect width="5.12076" height="7.59382" fill="white" transform="translate(9.05957 13.1594)"/>
</clipPath>
<clipPath id="clip2_1_725">
<rect width="5.12076" height="7.59382" fill="white" transform="translate(9.05957 13.1594)"/>
</clipPath>
<clipPath id="clip3_1_725">
<rect width="14.7172" height="21.367" fill="white" transform="translate(10.7031 13.1593)"/>
</clipPath>
<clipPath id="clip4_1_725">
<rect width="14.7172" height="21.367" fill="white" transform="translate(10.7031 13.1593)"/>
</clipPath>
<clipPath id="clip5_1_725">
<rect width="19.0099" height="18.6203" fill="white" transform="translate(14.8516)"/>
</clipPath>
<clipPath id="clip6_1_725">
<rect width="19.0099" height="18.6203" fill="white" transform="translate(14.8516)"/>
</clipPath>
<clipPath id="clip7_1_725">
<rect width="14.2591" height="9.52419" fill="white" transform="translate(0.594727 2.38342)"/>
</clipPath>
<clipPath id="clip8_1_725">
<rect width="14.2591" height="9.52419" fill="white" transform="translate(0.594727 2.38342)"/>
</clipPath>
</defs>
</svg>
