<svg width="26" height="26" viewBox="0 0 26 26" fill="none" xmlns="http://www.w3.org/2000/svg">
<g clip-path="url(#clip0_1_855)">
<path d="M24.5669 15.8509C24.5454 15.8221 24.5222 15.7953 24.4974 15.7696C23.781 14.8738 22.486 14.6939 21.583 15.3717C20.2815 16.3309 18.055 17.945 17.3118 18.4837L14.0655 18.2291L16.0518 17.7944C17.1157 17.6396 17.8785 16.7008 17.8324 15.5927C17.8321 15.581 17.8312 15.5692 17.8301 15.5578C17.7379 14.4505 16.8383 13.6157 15.7377 13.6157H9.73068C9.24259 13.6157 8.78718 13.7406 8.37701 13.9868C8.36055 13.9968 8.34433 14.0072 8.3284 14.0183L1.93021 18.4887C1.5508 18.7539 1.45805 19.2766 1.72315 19.6557C1.98801 20.0354 2.51105 20.1285 2.89017 19.8627L9.26155 15.4111C9.40349 15.3309 9.55717 15.2915 9.73092 15.2915H15.738C15.9609 15.2915 16.1313 15.4502 16.1582 15.6793C16.1602 15.881 16.0515 16.1051 15.8017 16.1364C15.7766 16.1395 15.7514 16.1436 15.7265 16.1492L12.1502 16.9315C11.8711 16.9927 11.6423 17.1916 11.5431 17.4596C11.4439 17.7278 11.488 18.0279 11.6604 18.2558L12.6104 19.5131C12.7548 19.7045 12.9744 19.8249 13.2136 19.8436L17.4884 20.1789C17.6862 20.1932 17.8843 20.1387 18.0452 20.0221C18.0745 20.0009 21.0001 17.8834 22.5829 16.7169C22.7637 16.5814 23.0512 16.6328 23.1973 16.8283C23.2135 16.8499 23.2308 16.8708 23.249 16.8904C23.3616 17.0745 23.3185 17.3106 23.14 17.4444L17.4703 21.7179C17.3035 21.8428 17.1297 21.8903 16.931 21.8641L8.66084 20.8303C8.4351 20.8021 8.20822 20.8666 8.0311 21.0091L4.87392 23.5519C4.51323 23.8425 4.45649 24.3703 4.74681 24.7307C4.91223 24.9363 5.155 25.043 5.40004 25.043C5.58471 25.043 5.7705 24.9824 5.92505 24.8581L8.80537 22.5382L16.716 23.527C17.3469 23.6111 17.9548 23.4493 18.477 23.0582L24.1477 18.7848C25.0721 18.0913 25.2602 16.7754 24.5669 15.8509Z" fill="white"/>
<path d="M17.1063 3.30615C16.6433 3.30615 16.2681 3.68138 16.2681 4.14435V9.17351C16.2681 9.63648 16.6433 10.0117 17.1063 10.0117C17.5692 10.0117 17.9445 9.63648 17.9445 9.17351V4.14435C17.9445 3.68138 17.5692 3.30615 17.1063 3.30615Z" fill="white"/>
<path d="M19.6205 5.82043H14.5913C14.1283 5.82043 13.7531 6.19566 13.7531 6.65863C13.7531 7.12159 14.1283 7.49682 14.5913 7.49682H19.6205C20.0834 7.49682 20.4587 7.12159 20.4587 6.65863C20.4587 6.19566 20.0834 5.82043 19.6205 5.82043Z" fill="white"/>
<path d="M17.1068 0.400391C13.6557 0.400391 10.8486 3.2078 10.8486 6.65891C10.8486 10.11 13.6557 12.9174 17.1068 12.9174C20.5576 12.9174 23.3653 10.1101 23.3653 6.65891C23.3653 3.20775 20.5579 0.400391 17.1068 0.400391ZM17.1068 11.241C14.5802 11.241 12.525 9.18552 12.525 6.65891C12.525 4.13229 14.5802 2.07678 17.1068 2.07678C19.6334 2.07678 21.6889 4.13229 21.6889 6.65891C21.6889 9.18552 19.6334 11.241 17.1068 11.241Z" fill="white"/>
</g>
<defs>
<clipPath id="clip0_1_855">
<rect width="24.6429" height="24.6429" fill="white" transform="translate(0.956726 0.400391)"/>
</clipPath>
</defs>
</svg>
