<svg width="35" height="32" viewBox="0 0 35 32" fill="none" xmlns="http://www.w3.org/2000/svg">
<g clip-path="url(#clip0_1_714)">
<path d="M17.218 3.5513C9.7075 -3.03099 0.158044 2.7524 0.00145353 10.5927C-0.0384511 12.5908 0.537172 14.5372 1.68297 16.3315H9.10967L10.4306 14.1254C10.8142 13.4849 11.7424 13.4642 12.1477 14.1028L14.9348 18.4913L18.9975 9.89739C19.3518 9.14751 20.4077 9.1237 20.7984 9.85086L24.281 16.3315H32.753C39.0289 6.50307 26.6257 -4.69359 17.218 3.5513Z" fill="white"/>
<path d="M22.7898 17.8224L19.9678 12.571L15.9772 21.0124C15.6377 21.7306 14.6392 21.793 14.2134 21.1225L11.3218 16.5695L10.5471 17.8633C10.3647 18.1679 10.0361 18.3543 9.68158 18.3543H3.28015C3.48082 18.5648 2.41133 17.4953 16.5064 31.5457C16.9001 31.9382 17.5365 31.9383 17.9302 31.5457C31.8084 17.7114 30.9562 18.5644 31.1565 18.3543H23.6785C23.3071 18.3544 22.9658 18.1501 22.7898 17.8224Z" fill="white"/>
</g>
<defs>
<clipPath id="clip0_1_714">
<rect width="34.4565" height="31.154" fill="white" transform="translate(-0.000244141 0.686157)"/>
</clipPath>
</defs>
</svg>
