<svg width="35" height="35" viewBox="0 0 35 35" fill="none" xmlns="http://www.w3.org/2000/svg">
<g clip-path="url(#clip0_1_719)">
<path d="M6.83484 34.5264H27.62C28.8568 34.5264 29.8864 33.5785 29.8864 32.4137V7.15194C29.8864 5.98679 28.8568 5.02893 27.62 5.02893H24.1936V6.95784C24.1986 7.29267 23.935 7.56973 23.6011 7.58088H10.813C10.4724 7.57267 10.1974 7.29912 10.1863 6.95784V5.02893H6.83484C5.59802 5.02893 4.56836 5.98679 4.56836 7.15194V32.4137C4.56836 33.5785 5.59802 34.5264 6.83484 34.5264ZM11.4597 15.1617C11.4597 14.8301 11.728 14.5612 12.0589 14.5612H15.13V11.4839C15.13 11.1523 15.3984 10.8834 15.7293 10.8834H18.7255C19.0564 10.8834 19.3248 11.1523 19.3248 11.4839V14.5612H22.3959C22.7268 14.5612 22.9951 14.8301 22.9951 15.1617V18.1639C22.9951 18.4955 22.7268 18.7644 22.3959 18.7644H19.3248V21.8417C19.3248 22.1733 19.0564 22.4422 18.7255 22.4422H15.7293C15.3984 22.4422 15.13 22.1733 15.13 21.8417V18.7644H12.0589C11.728 18.7644 11.4597 18.4955 11.4597 18.1639V15.1617ZM11.7037 25.5195H22.7511C23.0823 25.5195 23.3503 25.7884 23.3503 26.12C23.3503 26.4516 23.0823 26.7205 22.7511 26.7205H11.7037C11.3725 26.7205 11.1045 26.4516 11.1045 26.12C11.1045 25.7884 11.3725 25.5195 11.7037 25.5195ZM9.45653 28.5218H24.9983C25.3295 28.5218 25.5975 28.7907 25.5975 29.1223C25.5975 29.4539 25.3295 29.7228 24.9983 29.7228H9.45653C9.12531 29.7228 8.85729 29.4539 8.85729 29.1223C8.85729 28.7907 9.12531 28.5218 9.45653 28.5218Z" fill="white"/>
<path d="M22.9961 2.32678H20.1918C19.9098 2.32648 19.6657 2.12916 19.6063 1.85268C19.3746 0.779599 18.3575 1.3344e-06 17.1877 1.3344e-06H17.1804C16.0419 -0.00117143 15.0473 0.770804 14.7641 1.87555C14.6959 2.14089 14.4572 2.32648 14.1836 2.32678H11.3857V6.37986H22.9961V2.32678Z" fill="white"/>
<path d="M16.3296 18.1639V21.2412H18.1273V18.1639C18.1273 17.8323 18.3956 17.5634 18.7265 17.5634H21.7977V15.762H18.7265C18.3956 15.762 18.1273 15.4932 18.1273 15.1616V12.0842H16.3296V15.1616C16.3296 15.4932 16.0612 15.762 15.7303 15.762H12.6592V17.5634H15.7303C16.0612 17.5634 16.3296 17.8323 16.3296 18.1639Z" fill="white"/>
</g>
<defs>
<clipPath id="clip0_1_719">
<rect width="34.4566" height="34.5263" fill="white"/>
</clipPath>
</defs>
</svg>
