<svg width="25" height="21" viewBox="0 0 25 21" fill="none" xmlns="http://www.w3.org/2000/svg">
<path fill-rule="evenodd" clip-rule="evenodd" d="M12.4713 19.2169C9.09738 19.2169 6.21509 18.7065 6.21509 16.6628C6.21509 14.619 9.07863 12.8398 12.4713 12.8398C15.8453 12.8398 18.7276 14.6023 18.7276 16.6451C18.7276 18.6878 15.864 19.2169 12.4713 19.2169Z" stroke="white" stroke-width="2" stroke-linecap="round" stroke-linejoin="round"/>
<path fill-rule="evenodd" clip-rule="evenodd" d="M12.4716 9.92574C14.6862 9.92574 16.482 8.13095 16.482 5.91636C16.482 3.70178 14.6862 1.90594 12.4716 1.90594C10.257 1.90594 8.4612 3.70178 8.4612 5.91636C8.45495 8.12261 10.2362 9.91845 12.4435 9.92574H12.4716Z" stroke="white" stroke-width="2" stroke-linecap="round" stroke-linejoin="round"/>
<path d="M19.1271 8.8246C20.4157 8.47981 21.3657 7.30481 21.3657 5.90585C21.3657 4.44647 20.3313 3.22772 18.9542 2.94647" stroke="white" stroke-width="2" stroke-linecap="round" stroke-linejoin="round"/>
<path d="M19.7324 12.1088C21.5595 12.1088 23.1199 13.3473 23.1199 14.4536C23.1199 15.1046 22.5814 15.814 21.7647 16.0056" stroke="white" stroke-width="2" stroke-linecap="round" stroke-linejoin="round"/>
<path d="M5.816 8.8246C4.52642 8.47981 3.57642 7.30481 3.57642 5.90585C3.57642 4.44647 4.61183 3.22772 5.98787 2.94647" stroke="white" stroke-width="2" stroke-linecap="round" stroke-linejoin="round"/>
<path d="M5.21013 12.1088C3.38305 12.1088 1.82263 13.3473 1.82263 14.4536C1.82263 15.1046 2.36117 15.814 3.17888 16.0056" stroke="white" stroke-width="2" stroke-linecap="round" stroke-linejoin="round"/>
</svg>
